<svg xmlns="http://www.w3.org/2000/svg" width="197" height="58" viewBox="0 0 197 58" fill="none">
<path d="M71.8082 42.6594L60.9091 30.5831V42.6594H57.4533V16.1902H60.9091V28.4564L71.8462 16.1902H76.2134L64.213 29.4438L76.3274 42.6594H71.8082ZM80.8326 18.4688C80.1743 18.4688 79.6173 18.2409 79.1616 17.7852C78.7059 17.3295 78.478 16.7725 78.478 16.1142C78.478 15.456 78.7059 14.899 79.1616 14.4433C79.6173 13.9876 80.1743 13.7597 80.8326 13.7597C81.4655 13.7597 81.9971 13.9876 82.4275 14.4433C82.8833 14.899 83.1111 15.456 83.1111 16.1142C83.1111 16.7725 82.8833 17.3295 82.4275 17.7852C81.9971 18.2409 81.4655 18.4688 80.8326 18.4688ZM82.5035 21.8486V42.6594H79.0477V21.8486H82.5035ZM97.3936 21.4689C99.9253 21.4689 101.976 22.241 103.546 23.7854C105.115 25.3044 105.9 27.507 105.9 30.3932V42.6594H102.482V30.8869C102.482 28.8109 101.963 27.2285 100.925 26.1399C99.8874 25.0259 98.4696 24.469 96.6721 24.469C94.8492 24.469 93.3935 25.0386 92.3048 26.1779C91.2415 27.3171 90.7099 28.9754 90.7099 31.1527V42.6594H87.254V21.8486H90.7099V24.8107C91.3934 23.7474 92.3175 22.9246 93.4821 22.3423C94.672 21.76 95.9759 21.4689 97.3936 21.4689ZM114.621 24.6968V36.963C114.621 37.9757 114.837 38.6973 115.267 39.1277C115.697 39.5327 116.444 39.7353 117.508 39.7353H120.052V42.6594H116.938C115.014 42.6594 113.571 42.2164 112.609 41.3303C111.647 40.4442 111.166 38.9884 111.166 36.963V24.6968H108.469V21.8486H111.166V16.6079H114.621V21.8486H120.052V24.6968H114.621ZM130.467 43.0012C128.872 43.0012 127.442 42.7354 126.176 42.2037C124.91 41.6467 123.91 40.8872 123.176 39.9252C122.442 38.9378 122.036 37.8112 121.96 36.5453H125.53C125.631 37.5833 126.113 38.4314 126.973 39.0897C127.859 39.7479 129.011 40.0771 130.429 40.0771C131.746 40.0771 132.784 39.7859 133.543 39.2036C134.303 38.6213 134.682 37.8871 134.682 37.001C134.682 36.0896 134.277 35.4187 133.467 34.9883C132.657 34.5326 131.404 34.0895 129.708 33.6591C128.163 33.2541 126.897 32.849 125.91 32.4439C124.948 32.0135 124.112 31.3932 123.404 30.5831C122.72 29.7476 122.378 28.659 122.378 27.3171C122.378 26.2538 122.695 25.2791 123.328 24.393C123.961 23.5069 124.859 22.8107 126.024 22.3043C127.189 21.7727 128.518 21.5068 130.011 21.5068C132.315 21.5068 134.176 22.0891 135.594 23.2537C137.012 24.4183 137.771 26.0133 137.872 28.0387H134.417C134.341 26.95 133.898 26.0766 133.087 25.4183C132.303 24.7601 131.239 24.431 129.897 24.431C128.657 24.431 127.67 24.6968 126.935 25.2285C126.201 25.7601 125.834 26.4564 125.834 27.3171C125.834 28.0007 126.049 28.5704 126.48 29.0261C126.935 29.4565 127.492 29.8109 128.151 30.0894C128.834 30.3426 129.771 30.6337 130.961 30.9628C132.455 31.3679 133.67 31.773 134.606 32.1781C135.543 32.5578 136.341 33.1401 136.999 33.925C137.683 34.7098 138.037 35.7351 138.062 37.001C138.062 38.1403 137.746 39.1656 137.113 40.0771C136.48 40.9885 135.581 41.71 134.417 42.2417C133.277 42.748 131.961 43.0012 130.467 43.0012ZM160.258 21.8486V42.6594H156.802V39.5834C156.144 40.6467 155.22 41.4822 154.03 42.0898C152.865 42.6721 151.574 42.9632 150.156 42.9632C148.536 42.9632 147.08 42.6341 145.789 41.9759C144.498 41.2923 143.472 40.2796 142.713 38.9378C141.979 37.596 141.612 35.963 141.612 34.0389V21.8486H145.029V33.5832C145.029 35.6339 145.548 37.2162 146.586 38.3302C147.624 39.4188 149.042 39.9631 150.84 39.9631C152.688 39.9631 154.144 39.3935 155.207 38.2542C156.27 37.1149 156.802 35.4567 156.802 33.2794V21.8486H160.258ZM173.536 21.5068C175.333 21.5068 176.903 21.8992 178.245 22.6841C179.612 23.4689 180.625 24.4563 181.283 25.6462V21.8486H184.777V43.1151C184.777 45.0139 184.372 46.6975 183.562 48.1659C182.751 49.6597 181.587 50.8242 180.068 51.6597C178.574 52.4952 176.827 52.9129 174.827 52.9129C172.093 52.9129 169.814 52.2673 167.991 50.9762C166.169 49.685 165.093 47.9254 164.764 45.6975H168.181C168.561 46.9634 169.346 47.9761 170.536 48.7356C171.726 49.5204 173.156 49.9128 174.827 49.9128C176.726 49.9128 178.27 49.3179 179.46 48.128C180.675 46.938 181.283 45.2671 181.283 43.1151V38.7479C180.599 39.9631 179.587 40.9758 178.245 41.786C176.903 42.5961 175.333 43.0012 173.536 43.0012C171.688 43.0012 170.004 42.5455 168.485 41.6341C166.991 40.7227 165.814 39.4441 164.953 37.7985C164.093 36.1529 163.662 34.2794 163.662 32.1781C163.662 30.0514 164.093 28.1906 164.953 26.5956C165.814 24.9753 166.991 23.7221 168.485 22.836C170.004 21.9499 171.688 21.5068 173.536 21.5068ZM181.283 32.216C181.283 30.6464 180.967 29.2792 180.334 28.1146C179.701 26.95 178.84 26.0639 177.751 25.4563C176.688 24.8234 175.511 24.5069 174.22 24.5069C172.928 24.5069 171.751 24.8107 170.688 25.4183C169.624 26.026 168.776 26.9121 168.143 28.0767C167.51 29.2413 167.194 30.6084 167.194 32.1781C167.194 33.7731 167.51 35.1655 168.143 36.3554C168.776 37.52 169.624 38.4188 170.688 39.0517C171.751 39.6593 172.928 39.9631 174.22 39.9631C175.511 39.9631 176.688 39.6593 177.751 39.0517C178.84 38.4188 179.701 37.52 180.334 36.3554C180.967 35.1655 181.283 33.7857 181.283 32.216ZM191.262 18.4688C190.604 18.4688 190.047 18.2409 189.591 17.7852C189.136 17.3295 188.908 16.7725 188.908 16.1142C188.908 15.456 189.136 14.899 189.591 14.4433C190.047 13.9876 190.604 13.7597 191.262 13.7597C191.895 13.7597 192.427 13.9876 192.857 14.4433C193.313 14.899 193.541 15.456 193.541 16.1142C193.541 16.7725 193.313 17.3295 192.857 17.7852C192.427 18.2409 191.895 18.4688 191.262 18.4688ZM192.933 21.8486V42.6594H189.478V21.8486H192.933Z" fill="black"/>
<path d="M42.126 22.0993C40.1435 13.8912 32.3312 5.89914 20.8682 6.19369C8.89464 6.93987 -0.154168 16.6207 0.827273 29.0702C1.31799 35.3736 4.3408 40.4594 9.42462 44.2297C14.2336 47.8035 19.6903 48.9817 25.5201 47.9017C30.7414 46.9395 35.1578 44.3279 38.3965 40.0471C42.4596 34.706 43.7158 28.6383 42.126 22.0993ZM23.518 7.90207C30.8983 8.60899 37.0814 13.4592 39.6724 20.116C39.7115 20.2339 39.7508 20.3516 39.8097 20.4499C38.2197 21.8047 36.3551 22.276 34.3333 21.6477C31.7032 20.8425 29.1317 19.9 26.5212 18.9967C25.8734 18.7807 25.8341 18.5451 25.9126 17.8774C26.0501 16.5422 26.1482 15.2069 26.1875 13.8519C26.2071 13.5378 25.9716 13.2039 25.8146 12.8898C25.5201 12.3007 25.1864 11.7312 24.8723 11.1617C24.2639 10.0621 23.6357 8.98208 23.0077 7.88244C22.988 7.86279 22.988 7.84316 22.9684 7.82353C23.1646 7.86279 23.3414 7.88243 23.518 7.90207ZM5.40074 16.7189C6.24477 15.4229 7.2262 14.225 8.34503 13.1647C9.32647 12.2025 10.4257 11.3581 11.6427 10.6316C11.7015 10.5923 11.78 10.553 11.8389 10.5137C11.8586 10.4941 11.8782 10.4941 11.8979 10.4745C14.528 8.92317 17.5705 7.98062 20.8093 7.84316C21.0055 7.84316 21.1821 7.82353 21.3784 7.82353C21.398 7.84316 21.4177 7.86279 21.4373 7.90207C22.4777 9.59081 23.4984 11.2992 24.4012 13.0665C24.7742 13.8127 24.8332 14.7356 24.9901 15.4032C24.8332 16.4832 24.7153 17.3276 24.5975 18.1916C24.5387 18.5844 24.3228 18.7611 23.9498 18.8593C22.5169 19.2324 21.0841 19.5662 19.6707 19.9982C17.1191 20.7641 14.6066 21.6281 12.2904 22.9437C11.623 23.3168 10.9556 23.4935 10.2294 23.5524C9.56201 23.6114 8.87501 23.0615 8.71798 22.3742C8.56096 21.7458 8.48244 21.0783 8.24689 20.4695C7.69728 19.036 6.55882 18.1327 5.32222 17.308C5.26335 17.2687 5.20445 17.2294 5.14556 17.1902C5.22408 16.9938 5.3026 16.8563 5.40074 16.7189ZM6.06811 38.5351C5.96997 38.3975 5.87183 38.2602 5.77368 38.1226C3.61453 35.0004 2.33868 31.2107 2.33868 27.1459C2.33868 24.1415 3.02568 21.2942 4.26228 18.7611C4.3408 18.6236 4.39967 18.4862 4.47819 18.3291C5.43999 18.8593 6.38218 19.468 6.89252 20.4891C7.0888 20.9014 7.12805 21.3923 7.26546 21.8244C7.63841 23.0026 8.0506 24.1612 8.42355 25.3394C8.61983 25.948 8.73762 26.5567 8.87501 27.1852C8.60021 28.5007 8.36467 29.7968 8.07023 31.0535C7.69728 32.6638 7.26546 34.2936 6.83363 35.9037C6.59809 36.7678 6.32329 37.6514 6.06811 38.5351ZM23.0666 46.4289C22.5955 46.4682 22.1439 46.4879 21.6728 46.4879C15.9805 46.4879 10.8379 44.0137 7.30471 40.0668C7.20657 39.9489 7.10843 39.8507 7.01029 39.7329C7.4225 38.3584 7.83469 36.9839 8.20764 35.6092C8.60021 34.1757 8.97315 32.7226 9.32647 31.2696C9.50313 30.5233 9.66015 29.7772 9.81719 29.0311C9.91533 28.6579 10.1116 28.4616 10.5434 28.5597C11.6427 28.7953 12.3689 29.5612 13.0363 30.3663C14.587 32.2907 16.0395 34.2739 17.6294 36.159C18.6696 37.3962 19.9259 38.4565 21.0644 39.6347C22.5562 41.1664 23.5376 42.8945 23.4002 45.133C23.3805 45.5453 23.4394 45.9774 23.4984 46.4093C23.3805 46.4093 23.2235 46.4093 23.0666 46.4289ZM33.4697 42.4427C31.0749 44.2886 28.2289 45.6042 25.1275 46.154C25.0098 46.1737 24.8723 46.1933 24.7546 46.213C24.7153 45.9577 24.6957 45.7221 24.676 45.4669C24.6564 45.2704 24.676 45.0544 24.676 44.8581C24.6564 44.8581 24.6564 44.8581 24.6368 44.8581C24.7153 44.0725 24.7742 43.2871 24.8919 42.5213C24.9116 42.3641 25.206 42.1482 25.3827 42.1285C26.5016 42.0108 27.6203 41.9519 28.7392 41.8733C29.2889 41.834 29.858 41.8143 30.4076 41.7162C31.6049 41.5003 32.6846 41.7948 33.764 42.2071C33.666 42.3053 33.5678 42.3838 33.4697 42.4427ZM35.1578 40.9896C35.0596 41.0878 34.9419 41.1861 34.8437 41.3038C33.4501 40.538 31.8994 40.3024 30.2703 40.4594C28.8569 40.597 27.4437 40.6754 26.0109 40.7736C25.8341 40.7933 25.6575 40.7736 25.5005 40.8129C24.7939 41.0092 24.205 40.7933 23.6946 40.3221C22.2225 38.9475 20.6718 37.6121 19.2978 36.1394C18.1202 34.8827 17.1582 33.4492 16.0591 32.1336C14.9011 30.7589 13.6645 29.463 12.5063 28.1081C12.2315 27.7939 12.0941 27.3422 11.9566 27.1066C12.1923 25.1822 13.0363 23.8077 14.6459 23.1596C16.7854 22.2956 19.0034 21.6084 21.2018 20.8818C22.1832 20.5676 23.2039 20.4302 24.1657 20.0964C24.8527 19.8607 25.4219 20.0571 26.0109 20.273C28.5625 21.137 31.0946 22.0404 33.666 22.8847C35.8251 23.5917 37.9058 23.3757 39.8294 22.06C39.9863 21.9619 40.1042 21.8637 40.2219 21.8047C40.2612 21.9618 40.3004 22.1189 40.3594 22.2563C40.7715 23.8273 41.007 25.4964 41.007 27.2048C41.007 32.5656 38.7694 37.4747 35.1578 40.9896Z" fill="url(#paint0_linear_12852_13463)"/>
<path d="M42.126 22.0993C40.1435 13.8912 32.3312 5.89914 20.8682 6.19369C8.89464 6.93987 -0.154168 16.6207 0.827273 29.0702C1.31799 35.3736 4.3408 40.4594 9.42462 44.2297C14.2336 47.8035 19.6903 48.9817 25.5201 47.9017C30.7414 46.9395 35.1578 44.3279 38.3965 40.0471C42.4596 34.706 43.7158 28.6383 42.126 22.0993ZM23.518 7.90207C30.8983 8.60899 37.0814 13.4592 39.6724 20.116C39.7115 20.2339 39.7508 20.3516 39.8097 20.4499C38.2197 21.8047 36.3551 22.276 34.3333 21.6477C31.7032 20.8425 29.1317 19.9 26.5212 18.9967C25.8734 18.7807 25.8341 18.5451 25.9126 17.8774C26.0501 16.5422 26.1482 15.2069 26.1875 13.8519C26.2071 13.5378 25.9716 13.2039 25.8146 12.8898C25.5201 12.3007 25.1864 11.7312 24.8723 11.1617C24.2639 10.0621 23.6357 8.98208 23.0077 7.88244C22.988 7.86279 22.988 7.84316 22.9684 7.82353C23.1646 7.86279 23.3414 7.88243 23.518 7.90207ZM5.40074 16.7189C6.24477 15.4229 7.2262 14.225 8.34503 13.1647C9.32647 12.2025 10.4257 11.3581 11.6427 10.6316C11.7015 10.5923 11.78 10.553 11.8389 10.5137C11.8586 10.4941 11.8782 10.4941 11.8979 10.4745C14.528 8.92317 17.5705 7.98062 20.8093 7.84316C21.0055 7.84316 21.1821 7.82353 21.3784 7.82353C21.398 7.84316 21.4177 7.86279 21.4373 7.90207C22.4777 9.59081 23.4984 11.2992 24.4012 13.0665C24.7742 13.8127 24.8332 14.7356 24.9901 15.4032C24.8332 16.4832 24.7153 17.3276 24.5975 18.1916C24.5387 18.5844 24.3228 18.7611 23.9498 18.8593C22.5169 19.2324 21.0841 19.5662 19.6707 19.9982C17.1191 20.7641 14.6066 21.6281 12.2904 22.9437C11.623 23.3168 10.9556 23.4935 10.2294 23.5524C9.56201 23.6114 8.87501 23.0615 8.71798 22.3742C8.56096 21.7458 8.48244 21.0783 8.24689 20.4695C7.69728 19.036 6.55882 18.1327 5.32222 17.308C5.26335 17.2687 5.20445 17.2294 5.14556 17.1902C5.22408 16.9938 5.3026 16.8563 5.40074 16.7189ZM6.06811 38.5351C5.96997 38.3975 5.87183 38.2602 5.77368 38.1226C3.61453 35.0004 2.33868 31.2107 2.33868 27.1459C2.33868 24.1415 3.02568 21.2942 4.26228 18.7611C4.3408 18.6236 4.39967 18.4862 4.47819 18.3291C5.43999 18.8593 6.38218 19.468 6.89252 20.4891C7.0888 20.9014 7.12805 21.3923 7.26546 21.8244C7.63841 23.0026 8.0506 24.1612 8.42355 25.3394C8.61983 25.948 8.73762 26.5567 8.87501 27.1852C8.60021 28.5007 8.36467 29.7968 8.07023 31.0535C7.69728 32.6638 7.26546 34.2936 6.83363 35.9037C6.59809 36.7678 6.32329 37.6514 6.06811 38.5351ZM23.0666 46.4289C22.5955 46.4682 22.1439 46.4879 21.6728 46.4879C15.9805 46.4879 10.8379 44.0137 7.30471 40.0668C7.20657 39.9489 7.10843 39.8507 7.01029 39.7329C7.4225 38.3584 7.83469 36.9839 8.20764 35.6092C8.60021 34.1757 8.97315 32.7226 9.32647 31.2696C9.50313 30.5233 9.66015 29.7772 9.81719 29.0311C9.91533 28.6579 10.1116 28.4616 10.5434 28.5597C11.6427 28.7953 12.3689 29.5612 13.0363 30.3663C14.587 32.2907 16.0395 34.2739 17.6294 36.159C18.6696 37.3962 19.9259 38.4565 21.0644 39.6347C22.5562 41.1664 23.5376 42.8945 23.4002 45.133C23.3805 45.5453 23.4394 45.9774 23.4984 46.4093C23.3805 46.4093 23.2235 46.4093 23.0666 46.4289ZM33.4697 42.4427C31.0749 44.2886 28.2289 45.6042 25.1275 46.154C25.0098 46.1737 24.8723 46.1933 24.7546 46.213C24.7153 45.9577 24.6957 45.7221 24.676 45.4669C24.6564 45.2704 24.676 45.0544 24.676 44.8581C24.6564 44.8581 24.6564 44.8581 24.6368 44.8581C24.7153 44.0725 24.7742 43.2871 24.8919 42.5213C24.9116 42.3641 25.206 42.1482 25.3827 42.1285C26.5016 42.0108 27.6203 41.9519 28.7392 41.8733C29.2889 41.834 29.858 41.8143 30.4076 41.7162C31.6049 41.5003 32.6846 41.7948 33.764 42.2071C33.666 42.3053 33.5678 42.3838 33.4697 42.4427ZM35.1578 40.9896C35.0596 41.0878 34.9419 41.1861 34.8437 41.3038C33.4501 40.538 31.8994 40.3024 30.2703 40.4594C28.8569 40.597 27.4437 40.6754 26.0109 40.7736C25.8341 40.7933 25.6575 40.7736 25.5005 40.8129C24.7939 41.0092 24.205 40.7933 23.6946 40.3221C22.2225 38.9475 20.6718 37.6121 19.2978 36.1394C18.1202 34.8827 17.1582 33.4492 16.0591 32.1336C14.9011 30.7589 13.6645 29.463 12.5063 28.1081C12.2315 27.7939 12.0941 27.3422 11.9566 27.1066C12.1923 25.1822 13.0363 23.8077 14.6459 23.1596C16.7854 22.2956 19.0034 21.6084 21.2018 20.8818C22.1832 20.5676 23.2039 20.4302 24.1657 20.0964C24.8527 19.8607 25.4219 20.0571 26.0109 20.273C28.5625 21.137 31.0946 22.0404 33.666 22.8847C35.8251 23.5917 37.9058 23.3757 39.8294 22.06C39.9863 21.9619 40.1042 21.8637 40.2219 21.8047C40.2612 21.9618 40.3004 22.1189 40.3594 22.2563C40.7715 23.8273 41.007 25.4964 41.007 27.2048C41.007 32.5656 38.7694 37.4747 35.1578 40.9896Z" fill="black"/>
<defs>
<linearGradient id="paint0_linear_12852_13463" x1="23.0928" y1="3.9167" x2="20.1938" y2="50.5933" gradientUnits="userSpaceOnUse">
<stop offset="0.0097077" stop-color="#F9D751"/>
<stop offset="0.480181" stop-color="#EECA44"/>
<stop offset="1" stop-color="#C2710C"/>
</linearGradient>
</defs>
</svg>
